<?xml version="1.0" standalone="no"?>
<!DOCTYPE svg PUBLIC "-//W3C//DTD SVG 1.1//EN" "http://www.w3.org/Graphics/SVG/1.1/DTD/svg11.dtd" >
<svg xmlns="http://www.w3.org/2000/svg" xmlns:xlink="http://www.w3.org/1999/xlink" version="1.1">
<metadata></metadata>
<defs>
<font id="molotregular" horiz-adv-x="1239" >
<font-face units-per-em="2048" ascent="1638" descent="-410" />
<missing-glyph horiz-adv-x="1003" />
<glyph unicode=" "  horiz-adv-x="1003" />
<glyph unicode="&#x09;" horiz-adv-x="1003" />
<glyph unicode="&#xa0;" horiz-adv-x="1003" />
<glyph unicode="!" horiz-adv-x="614" d="M106 358h404v-358h-404v358zM129 508l-68 747v179h492v-179l-68 -747h-356z" />
<glyph unicode="#" horiz-adv-x="1515" d="M616 858v-285h283v285h-283zM326 0v285h-285v288h285v285h-285v289h285v287h290v-287h283v287h291v-287h285v-289h-285v-285h285v-288h-285v-285h-291v285h-283v-285h-290z" />
<glyph unicode="$" horiz-adv-x="1040" d="M162 713q-71 48 -96 100t-25 141v299q0 78 50 129.5t128 51.5h162v153h278v-153h340v-179l-71 -182h-439v-65l390 -260q71 -48 95.5 -101t24.5 -143v-326q0 -78 -50.5 -128t-129.5 -50h-160v-152h-278v152h-340v358h510v95z" />
<glyph unicode="%" horiz-adv-x="1390" d="M1145 381h-103v-207h103v207zM1253 0h-319q-43 0 -69.5 26.5t-26.5 69.5v363q0 43 26.5 69.5t69.5 26.5h319q42 0 69.5 -27t27.5 -69v-363q0 -42 -27.5 -69t-69.5 -27zM346 1260h-100v-209h100v209zM455 877h-318q-43 0 -69.5 26.5t-26.5 69.5v364q0 43 26.5 70t69.5 27 h318q43 0 69.5 -27t26.5 -70v-364q0 -43 -26.5 -69.5t-69.5 -26.5zM1233 1356l-789 -1356h-286v78l786 1356h289v-78z" />
<glyph unicode="&#x26;" horiz-adv-x="1216" d="M625 555h-117v-197h117v197zM240 0q-78 0 -128.5 50.5t-50.5 129.5v363q0 76 54 124t129 48v39q-75 0 -129 48.5t-54 125.5v325q0 78 50.5 129.5t128.5 51.5h833v-179l-69 -180h-496v-162h688v-358h-123v-375q0 -80 -50.5 -130t-129.5 -50h-653z" />
<glyph unicode="(" horiz-adv-x="514" d="M514 -109v-272h-25q-217 0 -312 98.5t-95 315.5v1366q0 217 95 314t312 97h25v-272h-25q-68 0 -93 -31.5t-25 -103.5v-1376q0 -71 25 -103.5t93 -32.5h25z" />
<glyph unicode=")" horiz-adv-x="514" d="M0 -109h25q68 0 93 32.5t25 103.5v1376q0 72 -25 103.5t-93 31.5h-25v272h25q217 0 312 -97t95 -314v-1366q0 -217 -95 -315.5t-312 -98.5h-25v272z" />
<glyph unicode="*" horiz-adv-x="923" d="M356 1180v221h211v-221l209 69l66 -198l-211 -70l129 -178l-168 -123l-129 178l-131 -178l-168 123l129 178l-211 70l65 198z" />
<glyph unicode="+" horiz-adv-x="1093" d="M41 860h360v361h289v-361h363v-289h-363v-362h-289v362h-360v289z" />
<glyph unicode="," horiz-adv-x="567" d="M485 63l-84 -217h-161v154h-158v358h403v-295z" />
<glyph unicode="-" horiz-adv-x="1093" d="M41 860h1012v-289h-1012v289z" />
<glyph unicode="." horiz-adv-x="567" d="M82 358h403v-358h-403v358z" />
<glyph unicode="/" horiz-adv-x="1075" d="M1075 1356l-786 -1356h-289v78l788 1356h287v-78z" />
<glyph unicode="0" horiz-adv-x="1175" d="M645 1073h-117v-717h117v717zM913 0h-653q-78 0 -128 50t-50 128v1077q0 78 50 128.5t128 50.5h653q78 0 129.5 -50.5t51.5 -128.5v-1077q0 -78 -51 -128t-130 -50z" />
<glyph unicode="1" horiz-adv-x="612" d="M530 0h-448v1346l225 88h223v-1434z" />
<glyph unicode="2" horiz-adv-x="1093" d="M932 684l-443 -250v-78h564v-356h-1012v475q0 93 24.5 146.5t96.5 97.5l444 278v76h-493l-72 182v179h833q78 0 128.5 -50.5t50.5 -128.5v-327q0 -94 -24 -148t-97 -96z" />
<glyph unicode="3" horiz-adv-x="1134" d="M1053 674v-496q0 -78 -50.5 -128t-128.5 -50h-833v356h565v199h-323v223l237 219v76h-407l-72 182v179h1003v-342l-174 -232q87 -6 135 -53t48 -133z" />
<glyph unicode="4" horiz-adv-x="1204" d="M293 1434h397v-179l-192 -550v-76h176v260h448v-889h-448v270h-633v439z" />
<glyph unicode="5" horiz-adv-x="1155" d="M82 1434h1003v-179l-69 -182h-486v-162h385q78 0 128.5 -50t50.5 -128v-555q0 -78 -50.5 -128t-128.5 -50h-833v356h565v199h-565v879z" />
<glyph unicode="6" horiz-adv-x="1155" d="M645 356v199h-117v-199h117zM913 911q79 0 130 -50t51 -128v-555q0 -78 -51 -128t-130 -50h-653q-78 0 -128 50t-50 128v1077q0 78 50 128.5t128 50.5h815v-179l-69 -182h-478v-162h385z" />
<glyph unicode="7" horiz-adv-x="942" d="M442 1024v49h-422v361h881v-369l-346 -1065h-416v115z" />
<glyph unicode="8" horiz-adv-x="1175" d="M530 555v-199h117v199h-117zM530 1073v-162h117v162h-117zM262 0q-79 0 -129.5 50t-50.5 128v363q0 76 54 124t130 48v41q-76 0 -130 48t-54 124v329q0 78 51 128.5t129 50.5h653q78 0 128.5 -50.5t50.5 -128.5v-329q0 -76 -53.5 -124t-129.5 -48v-41q76 0 129.5 -48 t53.5 -124v-363q0 -78 -50.5 -128t-128.5 -50h-653z" />
<glyph unicode="9" horiz-adv-x="1155" d="M508 1073v-196h117v196h-117zM240 518q-78 0 -128.5 50.5t-50.5 129.5v557q0 78 50.5 128.5t128.5 50.5h653q79 0 129.5 -50.5t50.5 -128.5v-1077q0 -78 -50.5 -128t-129.5 -50h-780v356h512v162h-385z" />
<glyph unicode=":" horiz-adv-x="567" d="M82 358h403v-358h-403v358zM82 1434h403v-361h-403v361z" />
<glyph unicode=";" horiz-adv-x="567" d="M485 63l-84 -217h-163v154h-156v358h403v-295zM82 1434h403v-361h-403v361z" />
<glyph unicode="&#x3c;" horiz-adv-x="831" d="M750 1026l-390 -340l390 -340v-96h-293l-416 371v129l416 370h293v-94z" />
<glyph unicode="=" horiz-adv-x="1175" d="M82 610h1012v-291h-1012v291zM82 1110h1012v-289h-1012v289z" />
<glyph unicode="&#x3e;" horiz-adv-x="833" d="M82 1026v94h295l416 -370v-129l-416 -371h-295v96l391 340z" />
<glyph unicode="?" horiz-adv-x="1073" d="M911 729l-221 -125v-96h-403v119q0 89 25 140t96 103l176 127v76h-494l-70 182v179h832q79 0 129.5 -50.5t50.5 -128.5v-282q0 -93 -24.5 -147.5t-96.5 -96.5zM287 358h403v-358h-403v358z" />
<glyph unicode="@" horiz-adv-x="1456" d="M815 766v-98h268v98h-268zM1083 1161h-710v-889h1001v-272h-1116q-39 0 -67 8t-54.5 30t-40.5 66.5t-14 110.5v1002q0 66 14 111t40 67t55 30.5t67 8.5h938q39 0 68 -8.5t55.5 -30.5t40.5 -67t14 -111v-822h-717q-72 0 -98.5 23t-26.5 94v410q0 70 26.5 92t98.5 22h426 v125z" />
<glyph unicode="A" horiz-adv-x="1228" d="M549 647h131l-41 426h-49zM242 1434h745l201 -1256v-178h-449l-26 289h-197l-29 -289h-446v178z" />
<glyph unicode="B" horiz-adv-x="1218" d="M530 555v-197h179v197h-179zM709 913v160h-179v-160h179zM977 0h-895v1434h895q79 0 129.5 -50.5t50.5 -128.5v-329q0 -76 -54 -124t-130 -48v-39q76 0 130 -48.5t54 -125.5v-363q0 -78 -50.5 -128t-129.5 -50z" />
<glyph unicode="C" horiz-adv-x="1081" d="M262 1434h778v-179l-69 -182h-441v-715h510v-358h-778q-79 0 -129.5 50t-50.5 128v1077q0 78 50.5 128.5t129.5 50.5z" />
<glyph unicode="D" horiz-adv-x="1236" d="M528 1073v-715h181v715h-181zM977 0h-895v1434h895q78 0 128 -50.5t50 -128.5v-1077q0 -78 -50 -128t-128 -50z" />
<glyph unicode="E" horiz-adv-x="1081" d="M1040 0h-958v1434h958v-179l-71 -182h-441v-160h441v-358h-441v-197h512v-358z" />
<glyph unicode="F" horiz-adv-x="1060" d="M530 483v-483h-448v1434h958v-179l-69 -182h-441v-231h441v-359h-441z" />
<glyph unicode="G" d="M262 1434h887v-179l-72 -182h-547v-715h179v482h448v-840h-895q-79 0 -129.5 50t-50.5 128v1077q0 78 50.5 128.5t129.5 50.5z" />
<glyph unicode="H" horiz-adv-x="1236" d="M528 913h181v521h446v-1434h-446v555h-181v-555h-446v1434h446v-521z" />
<glyph unicode="I" horiz-adv-x="610" d="M528 0h-446v1434h446v-1434z" />
<glyph unicode="J" horiz-adv-x="808" d="M549 0h-529v358h261v1076h446v-1256q0 -78 -50 -128t-128 -50z" />
<glyph unicode="K" horiz-adv-x="1218" d="M610 913l107 521h426v-179l-166 -497l201 -580v-178h-447l-121 555h-82v-555h-446v1434h446v-521h82z" />
<glyph unicode="L" horiz-adv-x="999" d="M82 0v1434h446v-1076h451v-358h-897z" />
<glyph unicode="M" horiz-adv-x="1624" d="M625 0l-111 688h-35v-688h-438v178l147 1256h500l109 -566h30l109 566h502l145 -1256v-178h-436v688h-37l-111 -688h-374z" />
<glyph unicode="N" d="M766 770h37l-60 485v179h414v-1434h-475l-211 662h-35l58 -484v-178h-412v1434h475z" />
<glyph unicode="O" d="M709 1073h-179v-715h179v715zM977 0h-715q-79 0 -129.5 50t-50.5 128v1077q0 78 50.5 128.5t129.5 50.5h715q79 0 129.5 -50.5t50.5 -128.5v-1077q0 -78 -50.5 -128t-129.5 -50z" />
<glyph unicode="P" horiz-adv-x="1218" d="M530 1073v-268h179v268h-179zM977 446h-447v-446h-448v1434h895q79 0 129.5 -50.5t50.5 -128.5v-628q0 -78 -50.5 -129.5t-129.5 -51.5z" />
<glyph unicode="Q" d="M709 1073h-179v-715h179v715zM977 0h-186l90 -139v-178h-340l-68 317h-211q-79 0 -129.5 50t-50.5 128v1077q0 78 50.5 128.5t129.5 50.5h715q79 0 129.5 -50.5t50.5 -128.5v-1077q0 -78 -50.5 -128t-129.5 -50z" />
<glyph unicode="R" horiz-adv-x="1220" d="M709 1073h-179v-268h179v268zM82 1434h897q78 0 128 -50.5t50 -128.5v-563q0 -52 -34.5 -100.5t-84.5 -61.5l142 -352v-178h-439l-120 446h-91v-446h-448v1434z" />
<glyph unicode="S" horiz-adv-x="1040" d="M162 711q-71 50 -96 102t-25 141v301q0 78 50.5 128.5t129.5 50.5h778v-177l-69 -184h-441v-65l390 -260q71 -48 95.5 -101t24.5 -143v-326q0 -78 -50 -128t-128 -50h-780v358h510v95z" />
<glyph unicode="T" horiz-adv-x="1044" d="M289 1073h-269v361h1004v-179l-72 -182h-215v-1073h-448v1073z" />
<glyph unicode="U" d="M709 1434h448v-1434h-895q-79 0 -129.5 50t-50.5 128v1256h448v-1076h179v1076z" />
<glyph unicode="V" horiz-adv-x="1169" d="M248 0l-228 1317v117h447l92 -1076h51l92 1076h447v-117l-227 -1317h-674z" />
<glyph unicode="W" horiz-adv-x="1624" d="M625 1434h374l111 -691h37v691h436v-179l-145 -1255h-502l-109 563h-30l-109 -563h-500l-147 1255v179h438v-691h35z" />
<glyph unicode="X" horiz-adv-x="1187" d="M612 913l95 521h426v-193l-166 -483l200 -588v-170h-448l-107 555h-37l-106 -555h-449v170l201 588l-166 483v193h426l94 -521h37z" />
<glyph unicode="Y" horiz-adv-x="1187" d="M371 391l-351 864v179h449l109 -557h32l111 557h446v-179l-350 -864v-391h-446v391z" />
<glyph unicode="Z" horiz-adv-x="1095" d="M41 0v367l483 657v49h-413l-70 182v179h995v-369l-485 -657v-50h504v-358h-1014z" />
<glyph unicode="[" horiz-adv-x="514" d="M371 1538v-1647h143v-272h-432v2191h432v-272h-143z" />
<glyph unicode="\" horiz-adv-x="1075" d="M0 1356v78h289l786 -1356v-78h-287z" />
<glyph unicode="]" horiz-adv-x="516" d="M143 1538h-143v272h434v-2191h-434v272h143v1647z" />
<glyph unicode="_" horiz-adv-x="1009" d="M0 -121h1010v-289h-1010v289z" />
<glyph unicode="a" horiz-adv-x="1228" d="M549 647h131l-41 426h-49zM242 1434h745l201 -1256v-178h-449l-26 289h-197l-29 -289h-446v178z" />
<glyph unicode="b" horiz-adv-x="1218" d="M530 555v-197h179v197h-179zM709 913v160h-179v-160h179zM977 0h-895v1434h895q79 0 129.5 -50.5t50.5 -128.5v-329q0 -76 -54 -124t-130 -48v-39q76 0 130 -48.5t54 -125.5v-363q0 -78 -50.5 -128t-129.5 -50z" />
<glyph unicode="c" horiz-adv-x="1081" d="M262 1434h778v-179l-69 -182h-441v-715h510v-358h-778q-79 0 -129.5 50t-50.5 128v1077q0 78 50.5 128.5t129.5 50.5z" />
<glyph unicode="d" horiz-adv-x="1236" d="M528 1073v-715h181v715h-181zM977 0h-895v1434h895q78 0 128 -50.5t50 -128.5v-1077q0 -78 -50 -128t-128 -50z" />
<glyph unicode="e" horiz-adv-x="1081" d="M1040 0h-958v1434h958v-179l-71 -182h-441v-160h441v-358h-441v-197h512v-358z" />
<glyph unicode="f" horiz-adv-x="1060" d="M530 483v-483h-448v1434h958v-179l-69 -182h-441v-231h441v-359h-441z" />
<glyph unicode="g" d="M262 1434h887v-179l-72 -182h-547v-715h179v482h448v-840h-895q-79 0 -129.5 50t-50.5 128v1077q0 78 50.5 128.5t129.5 50.5z" />
<glyph unicode="h" horiz-adv-x="1236" d="M528 913h181v521h446v-1434h-446v555h-181v-555h-446v1434h446v-521z" />
<glyph unicode="i" horiz-adv-x="610" d="M528 0h-446v1434h446v-1434z" />
<glyph unicode="j" horiz-adv-x="808" d="M549 0h-529v358h261v1076h446v-1256q0 -78 -50 -128t-128 -50z" />
<glyph unicode="k" horiz-adv-x="1218" d="M610 913l107 521h426v-179l-166 -497l201 -580v-178h-447l-121 555h-82v-555h-446v1434h446v-521h82z" />
<glyph unicode="l" horiz-adv-x="999" d="M82 0v1434h446v-1076h451v-358h-897z" />
<glyph unicode="m" horiz-adv-x="1624" d="M625 0l-111 688h-35v-688h-438v178l147 1256h500l109 -566h30l109 566h502l145 -1256v-178h-436v688h-37l-111 -688h-374z" />
<glyph unicode="n" d="M766 770h37l-60 485v179h414v-1434h-475l-211 662h-35l58 -484v-178h-412v1434h475z" />
<glyph unicode="o" d="M709 1073h-179v-715h179v715zM977 0h-715q-79 0 -129.5 50t-50.5 128v1077q0 78 50.5 128.5t129.5 50.5h715q79 0 129.5 -50.5t50.5 -128.5v-1077q0 -78 -50.5 -128t-129.5 -50z" />
<glyph unicode="p" horiz-adv-x="1218" d="M530 1073v-268h179v268h-179zM977 446h-447v-446h-448v1434h895q79 0 129.5 -50.5t50.5 -128.5v-628q0 -78 -50.5 -129.5t-129.5 -51.5z" />
<glyph unicode="q" d="M709 1073h-179v-715h179v715zM977 0h-186l90 -139v-178h-340l-68 317h-211q-79 0 -129.5 50t-50.5 128v1077q0 78 50.5 128.5t129.5 50.5h715q79 0 129.5 -50.5t50.5 -128.5v-1077q0 -78 -50.5 -128t-129.5 -50z" />
<glyph unicode="r" horiz-adv-x="1220" d="M709 1073h-179v-268h179v268zM82 1434h897q78 0 128 -50.5t50 -128.5v-563q0 -52 -34.5 -100.5t-84.5 -61.5l142 -352v-178h-439l-120 446h-91v-446h-448v1434z" />
<glyph unicode="s" horiz-adv-x="1040" d="M162 711q-71 50 -96 102t-25 141v301q0 78 50.5 128.5t129.5 50.5h778v-177l-69 -184h-441v-65l390 -260q71 -48 95.5 -101t24.5 -143v-326q0 -78 -50 -128t-128 -50h-780v358h510v95z" />
<glyph unicode="t" horiz-adv-x="1044" d="M289 1073h-269v361h1004v-179l-72 -182h-215v-1073h-448v1073z" />
<glyph unicode="u" d="M709 1434h448v-1434h-895q-79 0 -129.5 50t-50.5 128v1256h448v-1076h179v1076z" />
<glyph unicode="v" horiz-adv-x="1169" d="M248 0l-228 1317v117h447l92 -1076h51l92 1076h447v-117l-227 -1317h-674z" />
<glyph unicode="w" horiz-adv-x="1624" d="M625 1434h374l111 -691h37v691h436v-179l-145 -1255h-502l-109 563h-30l-109 -563h-500l-147 1255v179h438v-691h35z" />
<glyph unicode="x" horiz-adv-x="1187" d="M612 913l95 521h426v-193l-166 -483l200 -588v-170h-448l-107 555h-37l-106 -555h-449v170l201 588l-166 483v193h426l94 -521h37z" />
<glyph unicode="y" horiz-adv-x="1187" d="M371 391l-351 864v179h449l109 -557h32l111 557h446v-179l-350 -864v-391h-446v391z" />
<glyph unicode="z" horiz-adv-x="1095" d="M41 0v367l483 657v49h-413l-70 182v179h995v-369l-485 -657v-50h504v-358h-1014z" />
<glyph unicode="&#xab;" horiz-adv-x="1021" d="M940 1022l-192 -336l192 -338v-94h-240l-219 367v129l219 366h240v-94zM500 1022l-195 -336l195 -338v-94h-242l-217 367v129l217 366h242v-94z" />
<glyph unicode="&#xad;" horiz-adv-x="1093" d="M41 860h1012v-289h-1012v289z" />
<glyph unicode="&#xbb;" horiz-adv-x="1024" d="M82 1022v94h240l219 -366v-129l-219 -367h-240v94l192 338zM524 1022v94h240l219 -366v-129l-219 -367h-240v94l193 338z" />
<glyph unicode="&#x401;" horiz-adv-x="1081" d="M594 1591v344h367v-198l-58 -146h-309zM162 1591v344h366v-198l-57 -146h-309zM1040 0h-958v1434h958v-179l-69 -180h-441v-162h441v-358h-441v-197h510v-358z" />
<glyph unicode="&#x40c;" horiz-adv-x="1421" d="M240 0q-78 0 -128.5 50.5t-50.5 129.5v363q0 76 54 124t129 48v39q-75 0 -129 48.5t-54 125.5v327q0 78 50.5 128.5t128.5 50.5h823v-179l-70 -180h-485v-162h872v-358h-131v-197h131v-358h-399q-79 0 -129.5 50t-50.5 130v375h-293v-197h192v-358h-460z" />
<glyph unicode="&#x410;" horiz-adv-x="1228" d="M549 647h131l-41 426h-49zM242 1434h745l201 -1256v-178h-449l-26 289h-197l-29 -289h-446v178z" />
<glyph unicode="&#x411;" horiz-adv-x="1216" d="M528 358h181v197h-181v-197zM977 913q78 0 128 -50t50 -128v-555q0 -78 -50 -129t-128 -51h-895v1434h1065v-179l-72 -180h-547v-162h449z" />
<glyph unicode="&#x412;" horiz-adv-x="1218" d="M530 555v-197h179v197h-179zM709 913v160h-179v-160h179zM977 0h-895v1434h895q79 0 129.5 -50.5t50.5 -128.5v-329q0 -76 -54 -124t-130 -48v-39q76 0 130 -48.5t54 -125.5v-363q0 -78 -50.5 -128t-129.5 -50z" />
<glyph unicode="&#x413;" horiz-adv-x="1060" d="M530 1075v-1075h-448v1434h958v-179l-69 -180h-441z" />
<glyph unicode="&#x414;" horiz-adv-x="1372" d="M784 358v717h-63l-111 -717h174zM20 0v358h134l219 1076h860v-1076h119v-358h-1332z" />
<glyph unicode="&#x415;" horiz-adv-x="1081" d="M1040 0h-958v1434h958v-179l-71 -182h-441v-160h441v-358h-441v-197h512v-358z" />
<glyph unicode="&#x416;" horiz-adv-x="1792" d="M1182 913l108 521h426v-179l-166 -495l201 -582v-178h-448l-121 555h-62v-555h-448v555h-62l-121 -555h-448v178l201 582l-164 495v179h424l108 -521h62v521h448v-521h62z" />
<glyph unicode="&#x417;" horiz-adv-x="1058" d="M819 0h-778v358h510v197h-270v358h270v162h-440l-70 180v179h778q78 0 128 -51.5t50 -129.5v-325q0 -77 -53 -125.5t-129 -48.5v-39q76 0 129 -48t53 -124v-363q0 -78 -50 -129t-128 -51z" />
<glyph unicode="&#x418;" horiz-adv-x="1236" d="M709 1290v144h446v-1434h-446v178l67 459h-37l-211 -494v-143h-446v1434h446v-179l-65 -458h35z" />
<glyph unicode="&#x419;" d="M283 1591v344h673v-198l-57 -146h-616zM709 1290v144h448v-1434h-448v178l67 459h-35l-211 -494v-143h-448v1434h448v-179l-67 -458h37z" />
<glyph unicode="&#x41a;" horiz-adv-x="1218" d="M610 913l109 521h424v-179l-166 -495l201 -582v-178h-447l-121 555h-80v-555h-448v1434h448v-521h80z" />
<glyph unicode="&#x41b;" horiz-adv-x="1230" d="M1149 0h-447v1075h-63l-168 -1075h-451v178l271 1256h858v-1434z" />
<glyph unicode="&#x41c;" horiz-adv-x="1624" d="M625 0l-111 688h-35v-688h-438v178l147 1256h500l109 -566h30l109 566h502l145 -1256v-178h-436v688h-37l-111 -688h-374z" />
<glyph unicode="&#x41d;" horiz-adv-x="1236" d="M528 913h181v521h446v-1434h-446v555h-181v-555h-446v1434h446v-521z" />
<glyph unicode="&#x41e;" d="M709 1073h-179v-715h179v715zM977 0h-715q-79 0 -129.5 50t-50.5 128v1077q0 78 50.5 128.5t129.5 50.5h715q79 0 129.5 -50.5t50.5 -128.5v-1077q0 -78 -50.5 -128t-129.5 -50z" />
<glyph unicode="&#x41f;" d="M530 0h-448v1434h1075v-1434h-448v1075h-179v-1075z" />
<glyph unicode="&#x420;" horiz-adv-x="1218" d="M530 1073v-268h179v268h-179zM977 446h-447v-446h-448v1434h895q79 0 129.5 -50.5t50.5 -128.5v-628q0 -78 -50.5 -129.5t-129.5 -51.5z" />
<glyph unicode="&#x421;" horiz-adv-x="1081" d="M262 1434h778v-179l-69 -182h-441v-715h510v-358h-778q-79 0 -129.5 50t-50.5 128v1077q0 78 50.5 128.5t129.5 50.5z" />
<glyph unicode="&#x422;" horiz-adv-x="1044" d="M289 1073h-269v361h1004v-179l-72 -182h-215v-1073h-448v1073z" />
<glyph unicode="&#x423;" horiz-adv-x="1136" d="M729 0h-395v178l57 162l-371 915v179h431l114 -562h49l86 562h416v-179z" />
<glyph unicode="&#x424;" horiz-adv-x="1787" d="M1118 512h160v434h-160v-434zM670 946h-162v-434h162v434zM670 0v154h-428q-80 0 -130.5 50.5t-50.5 129.5v790q0 80 50.5 130.5t130.5 50.5h428v129h448v-129h428q79 0 129.5 -50.5t50.5 -130.5v-790q0 -80 -50 -130t-130 -50h-428v-154h-448z" />
<glyph unicode="&#x425;" horiz-adv-x="1187" d="M612 913l95 521h426v-193l-166 -483l200 -588v-170h-448l-107 555h-37l-106 -555h-449v170l201 588l-166 483v193h426l94 -521h37z" />
<glyph unicode="&#x426;" horiz-adv-x="1296" d="M530 1434v-1076h179v1076h448v-1076h119v-358h-1194v1434h448z" />
<glyph unicode="&#x427;" horiz-adv-x="1216" d="M240 483q-78 0 -128.5 51.5t-50.5 129.5v770h447v-592h180v592h447v-1434h-447v483h-448z" />
<glyph unicode="&#x428;" horiz-adv-x="1828" d="M82 1434h448v-1076h162v1076h447v-1076h161v1076h447v-1434h-1665v1434z" />
<glyph unicode="&#x429;" horiz-adv-x="1886" d="M1866 0h-1784v1434h448v-1076h160v1076h449v-1076h161v1076h447v-1076h119v-358z" />
<glyph unicode="&#x42a;" horiz-adv-x="1275" d="M588 358h178v269h-178v-269zM1034 985q79 0 129.5 -50t50.5 -128v-627q0 -78 -50.5 -129t-129.5 -51h-895v1075h-119v359h568v-449h446z" />
<glyph unicode="&#x42b;" horiz-adv-x="1794" d="M530 358h162v269h-162v-269zM1264 1434h448v-1434h-448v1434zM961 985q78 0 128 -50t50 -128v-627q0 -78 -50 -129t-128 -51h-879v1434h448v-449h431z" />
<glyph unicode="&#x42c;" horiz-adv-x="1218" d="M530 358h179v269h-179v-269zM979 985q78 0 128 -50t50 -128v-627q0 -78 -50 -129t-128 -51h-897v1434h448v-449h449z" />
<glyph unicode="&#x42d;" horiz-adv-x="1081" d="M821 1434q78 0 128 -51.5t50 -129.5v-1073q0 -78 -50 -129t-128 -51h-780v358h510v197h-268v358h268v162h-438l-72 180v179h780z" />
<glyph unicode="&#x42e;" horiz-adv-x="1828" d="M1298 1075h-159v-717h159v717zM528 913h162v340q0 78 50 129.5t128 51.5h699q79 0 129.5 -51.5t50.5 -129.5v-1073q0 -78 -50.5 -129t-129.5 -51h-697q-79 0 -129.5 51t-50.5 129v375h-162v-555h-446v1434h446v-521z" />
<glyph unicode="&#x42f;" horiz-adv-x="1218" d="M510 1075v-268h178v268h-178zM1137 1434v-1434h-449v449h-90l-119 -449h-438v178l139 352q-50 13 -84.5 61.5t-34.5 102.5v559q0 78 51 129.5t130 51.5h895z" />
<glyph unicode="&#x430;" horiz-adv-x="1228" d="M549 647h131l-41 426h-49zM242 1434h745l201 -1256v-178h-449l-26 289h-197l-29 -289h-446v178z" />
<glyph unicode="&#x431;" horiz-adv-x="1216" d="M528 358h181v197h-181v-197zM977 913q78 0 128 -50t50 -128v-555q0 -78 -50 -129t-128 -51h-895v1434h1065v-179l-72 -180h-547v-162h449z" />
<glyph unicode="&#x432;" horiz-adv-x="1218" d="M530 555v-197h179v197h-179zM709 913v160h-179v-160h179zM977 0h-895v1434h895q79 0 129.5 -50.5t50.5 -128.5v-329q0 -76 -54 -124t-130 -48v-39q76 0 130 -48.5t54 -125.5v-363q0 -78 -50.5 -128t-129.5 -50z" />
<glyph unicode="&#x433;" horiz-adv-x="1060" d="M530 1075v-1075h-448v1434h958v-179l-69 -180h-441z" />
<glyph unicode="&#x434;" horiz-adv-x="1372" d="M784 358v717h-63l-111 -717h174zM20 0v358h134l219 1076h860v-1076h119v-358h-1332z" />
<glyph unicode="&#x435;" horiz-adv-x="1081" d="M1040 0h-958v1434h958v-179l-71 -182h-441v-160h441v-358h-441v-197h512v-358z" />
<glyph unicode="&#x436;" horiz-adv-x="1792" d="M1182 913l108 521h426v-179l-166 -495l201 -582v-178h-448l-121 555h-62v-555h-448v555h-62l-121 -555h-448v178l201 582l-164 495v179h424l108 -521h62v521h448v-521h62z" />
<glyph unicode="&#x437;" horiz-adv-x="1058" d="M819 0h-778v358h510v197h-270v358h270v162h-440l-70 180v179h778q78 0 128 -51.5t50 -129.5v-325q0 -77 -53 -125.5t-129 -48.5v-39q76 0 129 -48t53 -124v-363q0 -78 -50 -129t-128 -51z" />
<glyph unicode="&#x438;" horiz-adv-x="1236" d="M709 1290v144h446v-1434h-446v178l67 459h-37l-211 -494v-143h-446v1434h446v-179l-65 -458h35z" />
<glyph unicode="&#x439;" d="M283 1591v344h673v-198l-57 -146h-616zM709 1290v144h448v-1434h-448v178l67 459h-35l-211 -494v-143h-448v1434h448v-179l-67 -458h37z" />
<glyph unicode="&#x43a;" horiz-adv-x="1218" d="M610 913l109 521h424v-179l-166 -495l201 -582v-178h-447l-121 555h-80v-555h-448v1434h448v-521h80z" />
<glyph unicode="&#x43b;" horiz-adv-x="1230" d="M1149 0h-447v1075h-63l-168 -1075h-451v178l271 1256h858v-1434z" />
<glyph unicode="&#x43c;" horiz-adv-x="1624" d="M625 0l-111 688h-35v-688h-438v178l147 1256h500l109 -566h30l109 566h502l145 -1256v-178h-436v688h-37l-111 -688h-374z" />
<glyph unicode="&#x43d;" horiz-adv-x="1236" d="M528 913h181v521h446v-1434h-446v555h-181v-555h-446v1434h446v-521z" />
<glyph unicode="&#x43e;" d="M709 1073h-179v-715h179v715zM977 0h-715q-79 0 -129.5 50t-50.5 128v1077q0 78 50.5 128.5t129.5 50.5h715q79 0 129.5 -50.5t50.5 -128.5v-1077q0 -78 -50.5 -128t-129.5 -50z" />
<glyph unicode="&#x43f;" d="M530 0h-448v1434h1075v-1434h-448v1075h-179v-1075z" />
<glyph unicode="&#x440;" horiz-adv-x="1218" d="M530 1073v-268h179v268h-179zM977 446h-447v-446h-448v1434h895q79 0 129.5 -50.5t50.5 -128.5v-628q0 -78 -50.5 -129.5t-129.5 -51.5z" />
<glyph unicode="&#x441;" horiz-adv-x="1081" d="M262 1434h778v-179l-69 -182h-441v-715h510v-358h-778q-79 0 -129.5 50t-50.5 128v1077q0 78 50.5 128.5t129.5 50.5z" />
<glyph unicode="&#x442;" horiz-adv-x="1044" d="M289 1073h-269v361h1004v-179l-72 -182h-215v-1073h-448v1073z" />
<glyph unicode="&#x443;" horiz-adv-x="1136" d="M729 0h-395v178l57 162l-371 915v179h431l114 -562h49l86 562h416v-179z" />
<glyph unicode="&#x444;" horiz-adv-x="1787" d="M1118 512h160v434h-160v-434zM670 946h-162v-434h162v434zM670 0v154h-428q-80 0 -130.5 50.5t-50.5 129.5v790q0 80 50.5 130.5t130.5 50.5h428v129h448v-129h428q79 0 129.5 -50.5t50.5 -130.5v-790q0 -80 -50 -130t-130 -50h-428v-154h-448z" />
<glyph unicode="&#x445;" horiz-adv-x="1187" d="M612 913l95 521h426v-193l-166 -483l200 -588v-170h-448l-107 555h-37l-106 -555h-449v170l201 588l-166 483v193h426l94 -521h37z" />
<glyph unicode="&#x446;" horiz-adv-x="1296" d="M530 1434v-1076h179v1076h448v-1076h119v-358h-1194v1434h448z" />
<glyph unicode="&#x447;" horiz-adv-x="1216" d="M240 483q-78 0 -128.5 51.5t-50.5 129.5v770h447v-592h180v592h447v-1434h-447v483h-448z" />
<glyph unicode="&#x448;" horiz-adv-x="1828" d="M82 1434h448v-1076h162v1076h447v-1076h161v1076h447v-1434h-1665v1434z" />
<glyph unicode="&#x449;" horiz-adv-x="1886" d="M1866 0h-1784v1434h448v-1076h160v1076h449v-1076h161v1076h447v-1076h119v-358z" />
<glyph unicode="&#x44a;" horiz-adv-x="1275" d="M588 358h178v269h-178v-269zM1034 985q79 0 129.5 -50t50.5 -128v-627q0 -78 -50.5 -129t-129.5 -51h-895v1075h-119v359h568v-449h446z" />
<glyph unicode="&#x44b;" horiz-adv-x="1794" d="M530 358h162v269h-162v-269zM1264 1434h448v-1434h-448v1434zM961 985q78 0 128 -50t50 -128v-627q0 -78 -50 -129t-128 -51h-879v1434h448v-449h431z" />
<glyph unicode="&#x44c;" horiz-adv-x="1218" d="M530 358h179v269h-179v-269zM979 985q78 0 128 -50t50 -128v-627q0 -78 -50 -129t-128 -51h-897v1434h448v-449h449z" />
<glyph unicode="&#x44d;" horiz-adv-x="1081" d="M821 1434q78 0 128 -51.5t50 -129.5v-1073q0 -78 -50 -129t-128 -51h-780v358h510v197h-268v358h268v162h-438l-72 180v179h780z" />
<glyph unicode="&#x44e;" horiz-adv-x="1828" d="M1298 1075h-159v-717h159v717zM528 913h162v340q0 78 50 129.5t128 51.5h699q79 0 129.5 -51.5t50.5 -129.5v-1073q0 -78 -50.5 -129t-129.5 -51h-697q-79 0 -129.5 51t-50.5 129v375h-162v-555h-446v1434h446v-521z" />
<glyph unicode="&#x44f;" horiz-adv-x="1218" d="M510 1075v-268h178v268h-178zM1137 1434v-1434h-449v449h-90l-119 -449h-438v178l139 352q-50 13 -84.5 61.5t-34.5 102.5v559q0 78 51 129.5t130 51.5h895z" />
<glyph unicode="&#x451;" horiz-adv-x="1081" d="M594 1591v344h367v-198l-58 -146h-309zM162 1591v344h366v-198l-57 -146h-309zM1040 0h-958v1434h958v-179l-69 -180h-441v-162h441v-358h-441v-197h510v-358z" />
<glyph unicode="&#x2000;" horiz-adv-x="967" />
<glyph unicode="&#x2001;" horiz-adv-x="1935" />
<glyph unicode="&#x2002;" horiz-adv-x="967" />
<glyph unicode="&#x2003;" horiz-adv-x="1935" />
<glyph unicode="&#x2004;" horiz-adv-x="645" />
<glyph unicode="&#x2005;" horiz-adv-x="483" />
<glyph unicode="&#x2006;" horiz-adv-x="322" />
<glyph unicode="&#x2007;" horiz-adv-x="322" />
<glyph unicode="&#x2008;" horiz-adv-x="241" />
<glyph unicode="&#x2009;" horiz-adv-x="387" />
<glyph unicode="&#x200a;" horiz-adv-x="107" />
<glyph unicode="&#x2010;" horiz-adv-x="1093" d="M41 860h1012v-289h-1012v289z" />
<glyph unicode="&#x2011;" horiz-adv-x="1093" d="M41 860h1012v-289h-1012v289z" />
<glyph unicode="&#x2012;" horiz-adv-x="1093" d="M41 860h1012v-289h-1012v289z" />
<glyph unicode="&#x2013;" horiz-adv-x="782" d="M41 829h700v-288h-700v288z" />
<glyph unicode="&#x2014;" horiz-adv-x="1626" d="M41 829h1544v-288h-1544v288z" />
<glyph unicode="&#x2018;" horiz-adv-x="567" d="M82 1370l86 215h162v-151h155v-361h-403v297z" />
<glyph unicode="&#x2019;" horiz-adv-x="567" d="M485 1434v-295l-84 -219h-163v153h-156v361h403z" />
<glyph unicode="&#x201c;" horiz-adv-x="1091" d="M606 1370l86 215h162v-151h156v-361h-404v297zM82 1368l84 217h162v-151h157v-361h-403v295z" />
<glyph unicode="&#x201d;" horiz-adv-x="1091" d="M485 1137l-86 -215h-161v151h-156v361h403v-297zM1010 1139l-84 -217h-162v151h-158v361h404v-295z" />
<glyph unicode="&#x201e;" horiz-adv-x="1091" d="M485 63l-86 -217h-161v154h-156v358h403v-295zM1010 63l-84 -217h-162v154h-158v358h404v-295z" />
<glyph unicode="&#x202f;" horiz-adv-x="387" />
<glyph unicode="&#x205f;" horiz-adv-x="483" />
<glyph unicode="&#x20ac;" horiz-adv-x="1163" d="M342 1434h780v-181l-71 -180h-441v-135h353v-90l-35 -92h-318v-80h250v-92l-35 -90h-215v-136h512v-358h-780q-78 0 -128 50t-50 128v316h-164v90l37 92h127v80h-164v92l37 90h127v315q0 78 50 129.5t128 51.5z" />
<glyph unicode="&#x25fc;" horiz-adv-x="1433" d="M0 1434h1434v-1434h-1434v1434z" />
</font>
</defs>
</svg>
