<?xml version="1.0" encoding="iso-8859-1"?>
<!-- Generator: Adobe Illustrator 19.0.0, SVG Export Plug-In . SVG Version: 6.00 Build 0)  -->
<svg xmlns="http://www.w3.org/2000/svg" xmlns:xlink="http://www.w3.org/1999/xlink" version="1.1" id="Capa_1" x="0px" y="0px" viewBox="0 0 512 512" style="enable-background:new 0 0 512 512;" xml:space="preserve" width="512px" height="512px">
<g>
	<g>
		<path d="M352,85.3H53.3c-5.9,0-10.7,4.8-10.7,10.7c0,5.9,4.8,10.7,10.7,10.7H352c5.9,0,10.7-4.8,10.7-10.7    C362.7,90.1,357.9,85.3,352,85.3z" fill="#FFFFFF"/>
	</g>
</g>
<g>
	<g>
		<path d="M117.3,298.6h-64c-5.9,0-10.7,4.8-10.7,10.7S47.4,320,53.3,320h64c5.9,0,10.7-4.8,10.7-10.7S123.2,298.6,117.3,298.6z" fill="#FFFFFF"/>
	</g>
</g>
<g>
	<g>
		<path d="M458.7,192h-53.6C399.5,85.2,310.9,0,202.7,0C90.9,0,0,90.9,0,202.7C0,277.8,40.7,345.5,106.7,381v35    c0,29.4,23.9,53.3,53.3,53.3h298.7c29.4,0,53.3-23.9,53.3-53.3V245.3C512,215.9,488.1,192,458.7,192z M383.7,192h-63.8    c-1.9-66.9-21.8-124.2-51.6-158.4C332.7,58.7,379.5,119.7,383.7,192z M213.3,22.5c45.4,10,82.3,82.6,85.2,169.5h-85.2V22.5z     M137.1,33.6C107.3,67.8,87.4,125.1,85.5,192H21.7C25.9,119.7,72.6,58.7,137.1,33.6z M106.7,356.3c-50.1-31.2-81.6-84-85-143h63.8    c1.1,38.3,8.4,74.7,21.2,106.3V356.3z M108.1,233.2c-0.6-6.6-1-13.2-1.2-19.9h10.5C113,219.2,109.8,225.9,108.1,233.2z M106.8,192    c2.8-86.8,39.8-159.5,85.2-169.5V192h-27.3H160H106.8z M490.7,416c0,17.6-14.4,32-32,32H160c-17.6,0-32-14.4-32-32v-41.8v-0.1    V245.3c0-17.6,14.4-32,32-32h298.7c17.6,0,32,14.4,32,32V416z" fill="#FFFFFF"/>
	</g>
</g>
<g>
	<g>
		<path d="M501.3,384h-384c-5.9,0-10.7,4.7-10.7,10.6s4.8,10.7,10.7,10.7h384c5.9,0,10.7-4.7,10.7-10.6S507.2,384,501.3,384z" fill="#FFFFFF"/>
	</g>
</g>
<g>
	<g>
		<path d="M309.3,447.9c-5.9,0-10.7,4.8-10.7,10.7v42.7c0,5.9,4.8,10.7,10.7,10.7c5.9,0,10.7-4.8,10.7-10.7v-42.7    C320,452.7,315.2,447.9,309.3,447.9z" fill="#FFFFFF"/>
	</g>
</g>
<g>
	<g>
		<path d="M394.7,490.6H224c-5.9,0-10.7,4.8-10.7,10.7S218.1,512,224,512h170.7c5.9,0,10.6-4.8,10.7-10.7    C405.4,495.4,400.6,490.6,394.7,490.6z" fill="#FFFFFF"/>
	</g>
</g>
<g>
</g>
<g>
</g>
<g>
</g>
<g>
</g>
<g>
</g>
<g>
</g>
<g>
</g>
<g>
</g>
<g>
</g>
<g>
</g>
<g>
</g>
<g>
</g>
<g>
</g>
<g>
</g>
<g>
</g>
</svg>
